<svg width="30" height="32" viewBox="0 0 30 32" fill="none" xmlns="http://www.w3.org/2000/svg">
<rect width="30" height="32" rx="4" fill="#BC9A6C"/>
<path d="M15 11.8064C16.9688 11.8064 18.5938 13.4314 18.5938 15.4001C18.5938 17.4001 16.9688 18.9939 15 18.9939C13 18.9939 11.4062 17.4001 11.4062 15.4001C11.4062 13.4314 13 11.8064 15 11.8064ZM15 17.7439C16.2812 17.7439 17.3125 16.7126 17.3125 15.4001C17.3125 14.1189 16.2812 13.0876 15 13.0876C13.6875 13.0876 12.6562 14.1189 12.6562 15.4001C12.6562 16.7126 13.7188 17.7439 15 17.7439ZM19.5625 11.6814C19.5625 12.1501 19.1875 12.5251 18.7188 12.5251C18.25 12.5251 17.875 12.1501 17.875 11.6814C17.875 11.2126 18.25 10.8376 18.7188 10.8376C19.1875 10.8376 19.5625 11.2126 19.5625 11.6814ZM21.9375 12.5251C22 13.6814 22 17.1501 21.9375 18.3064C21.875 19.4314 21.625 20.4001 20.8125 21.2439C20 22.0564 19 22.3064 17.875 22.3689C16.7188 22.4314 13.25 22.4314 12.0938 22.3689C10.9688 22.3064 10 22.0564 9.15625 21.2439C8.34375 20.4001 8.09375 19.4314 8.03125 18.3064C7.96875 17.1501 7.96875 13.6814 8.03125 12.5251C8.09375 11.4001 8.34375 10.4001 9.15625 9.58765C10 8.77515 10.9688 8.52515 12.0938 8.46265C13.25 8.40015 16.7188 8.40015 17.875 8.46265C19 8.52515 20 8.77515 20.8125 9.58765C21.625 10.4001 21.875 11.4001 21.9375 12.5251ZM20.4375 19.5251C20.8125 18.6189 20.7188 16.4314 20.7188 15.4001C20.7188 14.4001 20.8125 12.2126 20.4375 11.2751C20.1875 10.6814 19.7188 10.1814 19.125 9.96265C18.1875 9.58765 16 9.6814 15 9.6814C13.9688 9.6814 11.7812 9.58765 10.875 9.96265C10.25 10.2126 9.78125 10.6814 9.53125 11.2751C9.15625 12.2126 9.25 14.4001 9.25 15.4001C9.25 16.4314 9.15625 18.6189 9.53125 19.5251C9.78125 20.1501 10.25 20.6189 10.875 20.8689C11.7812 21.2439 13.9688 21.1501 15 21.1501C16 21.1501 18.1875 21.2439 19.125 20.8689C19.7188 20.6189 20.2188 20.1501 20.4375 19.5251Z" fill="#1E1E1E"/>
</svg>
