<svg width="304" height="26" viewBox="0 0 304 26" fill="none" xmlns="http://www.w3.org/2000/svg">
<path d="M32.3711 6.08887H34.0762V12.3818L40.3691 6.08887H42.7861L37.416 11.292L42.9355 19H40.6592L36.1416 12.5225L34.0762 14.5V19H32.3711V6.08887ZM47.9014 17.9805C48.9502 17.9805 49.668 17.585 50.0547 16.7939C50.4473 15.9971 50.6436 15.1123 50.6436 14.1396C50.6436 13.2607 50.5029 12.5459 50.2217 11.9951C49.7764 11.1279 49.0088 10.6943 47.9189 10.6943C46.9521 10.6943 46.249 11.0635 45.8096 11.8018C45.3701 12.54 45.1504 13.4307 45.1504 14.4736C45.1504 15.4756 45.3701 16.3105 45.8096 16.9785C46.249 17.6465 46.9463 17.9805 47.9014 17.9805ZM47.9629 9.31445C49.1758 9.31445 50.2012 9.71875 51.0391 10.5273C51.877 11.3359 52.2959 12.5254 52.2959 14.0957C52.2959 15.6133 51.9268 16.8672 51.1885 17.8574C50.4502 18.8477 49.3047 19.3428 47.752 19.3428C46.457 19.3428 45.4287 18.9062 44.667 18.0332C43.9053 17.1543 43.5244 15.9766 43.5244 14.5C43.5244 12.918 43.9258 11.6582 44.7285 10.7207C45.5312 9.7832 46.6094 9.31445 47.9629 9.31445ZM54.2295 6.08887H55.8115V19H54.2295V6.08887ZM58.1582 6.08887H59.6787V13.5859L63.7393 9.58691H65.7607L62.1572 13.1113L65.9629 19H63.9414L61.0059 14.2539L59.6787 15.4668V19H58.1582V6.08887ZM68.4062 16.4951C68.4062 16.9521 68.5732 17.3125 68.9072 17.5762C69.2412 17.8398 69.6367 17.9717 70.0938 17.9717C70.6504 17.9717 71.1895 17.8428 71.7109 17.585C72.5898 17.1572 73.0293 16.457 73.0293 15.4844V14.21C72.8359 14.333 72.5869 14.4355 72.2822 14.5176C71.9775 14.5996 71.6787 14.6582 71.3857 14.6934L70.4277 14.8164C69.8535 14.8926 69.4229 15.0127 69.1357 15.1768C68.6494 15.4521 68.4062 15.8916 68.4062 16.4951ZM72.2383 13.2959C72.6016 13.249 72.8447 13.0967 72.9678 12.8389C73.0381 12.6982 73.0732 12.4961 73.0732 12.2324C73.0732 11.6934 72.8799 11.3037 72.4932 11.0635C72.1123 10.8174 71.5645 10.6943 70.8496 10.6943C70.0234 10.6943 69.4375 10.917 69.0918 11.3623C68.8984 11.6084 68.7725 11.9746 68.7139 12.4609H67.2373C67.2666 11.3008 67.6416 10.4951 68.3623 10.0439C69.0889 9.58691 69.9297 9.3584 70.8848 9.3584C71.9922 9.3584 72.8916 9.56934 73.583 9.99121C74.2686 10.4131 74.6113 11.0693 74.6113 11.96V17.3828C74.6113 17.5469 74.6436 17.6787 74.708 17.7783C74.7783 17.8779 74.9219 17.9277 75.1387 17.9277C75.209 17.9277 75.2881 17.9248 75.376 17.9189C75.4639 17.9072 75.5576 17.8926 75.6572 17.875V19.0439C75.4111 19.1143 75.2236 19.1582 75.0947 19.1758C74.9658 19.1934 74.79 19.2021 74.5674 19.2021C74.0225 19.2021 73.627 19.0088 73.3809 18.6221C73.252 18.417 73.1611 18.127 73.1084 17.752C72.7861 18.1738 72.3232 18.54 71.7197 18.8506C71.1162 19.1611 70.4512 19.3164 69.7246 19.3164C68.8516 19.3164 68.1367 19.0527 67.5801 18.5254C67.0293 17.9922 66.7539 17.3271 66.7539 16.5303C66.7539 15.6572 67.0264 14.9805 67.5713 14.5C68.1162 14.0195 68.8311 13.7236 69.7158 13.6123L72.2383 13.2959ZM77.5293 6.95898H79.1289V9.58691H80.6318V10.8789H79.1289V17.0225C79.1289 17.3506 79.2402 17.5703 79.4629 17.6816C79.5859 17.7461 79.791 17.7783 80.0781 17.7783C80.1543 17.7783 80.2363 17.7783 80.3242 17.7783C80.4121 17.7725 80.5146 17.7637 80.6318 17.752V19C80.4502 19.0527 80.2598 19.0908 80.0605 19.1143C79.8672 19.1377 79.6562 19.1494 79.4277 19.1494C78.6895 19.1494 78.1885 18.9619 77.9248 18.5869C77.6611 18.2061 77.5293 17.7139 77.5293 17.1104V10.8789H76.2549V9.58691H77.5293V6.95898ZM83.4355 16.4951C83.4355 16.9521 83.6025 17.3125 83.9365 17.5762C84.2705 17.8398 84.666 17.9717 85.123 17.9717C85.6797 17.9717 86.2188 17.8428 86.7402 17.585C87.6191 17.1572 88.0586 16.457 88.0586 15.4844V14.21C87.8652 14.333 87.6162 14.4355 87.3115 14.5176C87.0068 14.5996 86.708 14.6582 86.415 14.6934L85.457 14.8164C84.8828 14.8926 84.4521 15.0127 84.165 15.1768C83.6787 15.4521 83.4355 15.8916 83.4355 16.4951ZM87.2676 13.2959C87.6309 13.249 87.874 13.0967 87.9971 12.8389C88.0674 12.6982 88.1025 12.4961 88.1025 12.2324C88.1025 11.6934 87.9092 11.3037 87.5225 11.0635C87.1416 10.8174 86.5938 10.6943 85.8789 10.6943C85.0527 10.6943 84.4668 10.917 84.1211 11.3623C83.9277 11.6084 83.8018 11.9746 83.7432 12.4609H82.2666C82.2959 11.3008 82.6709 10.4951 83.3916 10.0439C84.1182 9.58691 84.959 9.3584 85.9141 9.3584C87.0215 9.3584 87.9209 9.56934 88.6123 9.99121C89.2979 10.4131 89.6406 11.0693 89.6406 11.96V17.3828C89.6406 17.5469 89.6729 17.6787 89.7373 17.7783C89.8076 17.8779 89.9512 17.9277 90.168 17.9277C90.2383 17.9277 90.3174 17.9248 90.4053 17.9189C90.4932 17.9072 90.5869 17.8926 90.6865 17.875V19.0439C90.4404 19.1143 90.2529 19.1582 90.124 19.1758C89.9951 19.1934 89.8193 19.2021 89.5967 19.2021C89.0518 19.2021 88.6562 19.0088 88.4102 18.6221C88.2812 18.417 88.1904 18.127 88.1377 17.752C87.8154 18.1738 87.3525 18.54 86.749 18.8506C86.1455 19.1611 85.4805 19.3164 84.7539 19.3164C83.8809 19.3164 83.166 19.0527 82.6094 18.5254C82.0586 17.9922 81.7832 17.3271 81.7832 16.5303C81.7832 15.6572 82.0557 14.9805 82.6006 14.5C83.1455 14.0195 83.8604 13.7236 84.7451 13.6123L87.2676 13.2959ZM97.8584 6.08887H99.625V19H97.8584V6.08887ZM102.262 9.58691H103.765V10.9229C104.21 10.3721 104.682 9.97656 105.18 9.73633C105.678 9.49609 106.231 9.37598 106.841 9.37598C108.177 9.37598 109.079 9.8418 109.548 10.7734C109.806 11.2832 109.935 12.0127 109.935 12.9619V19H108.326V13.0674C108.326 12.4932 108.241 12.0303 108.071 11.6787C107.79 11.0928 107.28 10.7998 106.542 10.7998C106.167 10.7998 105.859 10.8379 105.619 10.9141C105.186 11.043 104.805 11.3008 104.477 11.6875C104.213 11.998 104.04 12.3203 103.958 12.6543C103.882 12.9824 103.844 13.4541 103.844 14.0693V19H102.262V9.58691ZM113.283 14.4033C113.283 15.4111 113.497 16.2549 113.925 16.9346C114.353 17.6143 115.038 17.9541 115.981 17.9541C116.714 17.9541 117.314 17.6406 117.783 17.0137C118.258 16.3809 118.495 15.4756 118.495 14.2979C118.495 13.1084 118.252 12.2295 117.766 11.6611C117.279 11.0869 116.679 10.7998 115.964 10.7998C115.167 10.7998 114.52 11.1045 114.021 11.7139C113.529 12.3232 113.283 13.2197 113.283 14.4033ZM115.665 9.41992C116.386 9.41992 116.989 9.57227 117.476 9.87695C117.757 10.0527 118.076 10.3604 118.434 10.7998V6.04492H119.954V19H118.53V17.6904C118.161 18.2705 117.725 18.6895 117.221 18.9473C116.717 19.2051 116.14 19.334 115.489 19.334C114.44 19.334 113.532 18.8945 112.765 18.0156C111.997 17.1309 111.613 15.9561 111.613 14.4912C111.613 13.1201 111.962 11.9336 112.659 10.9316C113.362 9.92383 114.364 9.41992 115.665 9.41992ZM122.301 9.63086H123.909V19H122.301V9.63086ZM122.301 6.08887H123.909V7.88184H122.301V6.08887ZM127.521 16.4951C127.521 16.9521 127.688 17.3125 128.022 17.5762C128.356 17.8398 128.752 17.9717 129.209 17.9717C129.766 17.9717 130.305 17.8428 130.826 17.585C131.705 17.1572 132.145 16.457 132.145 15.4844V14.21C131.951 14.333 131.702 14.4355 131.397 14.5176C131.093 14.5996 130.794 14.6582 130.501 14.6934L129.543 14.8164C128.969 14.8926 128.538 15.0127 128.251 15.1768C127.765 15.4521 127.521 15.8916 127.521 16.4951ZM131.354 13.2959C131.717 13.249 131.96 13.0967 132.083 12.8389C132.153 12.6982 132.188 12.4961 132.188 12.2324C132.188 11.6934 131.995 11.3037 131.608 11.0635C131.228 10.8174 130.68 10.6943 129.965 10.6943C129.139 10.6943 128.553 10.917 128.207 11.3623C128.014 11.6084 127.888 11.9746 127.829 12.4609H126.353C126.382 11.3008 126.757 10.4951 127.478 10.0439C128.204 9.58691 129.045 9.3584 130 9.3584C131.107 9.3584 132.007 9.56934 132.698 9.99121C133.384 10.4131 133.727 11.0693 133.727 11.96V17.3828C133.727 17.5469 133.759 17.6787 133.823 17.7783C133.894 17.8779 134.037 17.9277 134.254 17.9277C134.324 17.9277 134.403 17.9248 134.491 17.9189C134.579 17.9072 134.673 17.8926 134.772 17.875V19.0439C134.526 19.1143 134.339 19.1582 134.21 19.1758C134.081 19.1934 133.905 19.2021 133.683 19.2021C133.138 19.2021 132.742 19.0088 132.496 18.6221C132.367 18.417 132.276 18.127 132.224 17.752C131.901 18.1738 131.438 18.54 130.835 18.8506C130.231 19.1611 129.566 19.3164 128.84 19.3164C127.967 19.3164 127.252 19.0527 126.695 18.5254C126.145 17.9922 125.869 17.3271 125.869 16.5303C125.869 15.6572 126.142 14.9805 126.687 14.5C127.231 14.0195 127.946 13.7236 128.831 13.6123L131.354 13.2959ZM141.672 20.8369C142.076 20.7666 142.36 20.4824 142.524 19.9844C142.612 19.7207 142.656 19.4658 142.656 19.2197C142.656 19.1787 142.653 19.1406 142.647 19.1055C142.647 19.0762 142.642 19.041 142.63 19H141.672V17.084H143.553V18.8594C143.553 19.5566 143.412 20.1689 143.131 20.6963C142.85 21.2236 142.363 21.5488 141.672 21.6719V20.8369ZM154.873 19.3428C153.385 19.3428 152.304 18.9355 151.63 18.1211C150.962 17.3008 150.628 16.3047 150.628 15.1328H152.28C152.351 15.9473 152.503 16.5391 152.737 16.9082C153.147 17.5703 153.889 17.9014 154.961 17.9014C155.793 17.9014 156.461 17.6787 156.965 17.2334C157.469 16.7881 157.721 16.2139 157.721 15.5107C157.721 14.6436 157.454 14.0371 156.921 13.6914C156.394 13.3457 155.658 13.1729 154.715 13.1729C154.609 13.1729 154.501 13.1758 154.39 13.1816C154.284 13.1816 154.176 13.1846 154.064 13.1904V11.793C154.229 11.8105 154.366 11.8223 154.478 11.8281C154.589 11.834 154.709 11.8369 154.838 11.8369C155.43 11.8369 155.916 11.7432 156.297 11.5557C156.965 11.2275 157.299 10.6416 157.299 9.79785C157.299 9.1709 157.076 8.6875 156.631 8.34766C156.186 8.00781 155.667 7.83789 155.075 7.83789C154.021 7.83789 153.291 8.18945 152.887 8.89258C152.664 9.2793 152.538 9.83008 152.509 10.5449H150.944C150.944 9.60742 151.132 8.81055 151.507 8.1543C152.151 6.98242 153.285 6.39648 154.908 6.39648C156.191 6.39648 157.185 6.68359 157.888 7.25781C158.591 7.82617 158.942 8.65234 158.942 9.73633C158.942 10.5098 158.734 11.1367 158.318 11.6172C158.061 11.916 157.727 12.1504 157.316 12.3203C157.979 12.502 158.494 12.8535 158.863 13.375C159.238 13.8906 159.426 14.5234 159.426 15.2734C159.426 16.4746 159.03 17.4531 158.239 18.209C157.448 18.9648 156.326 19.3428 154.873 19.3428ZM161.421 9.58691H162.924V11.2129C163.047 10.8965 163.349 10.5127 163.829 10.0615C164.31 9.60449 164.863 9.37598 165.49 9.37598C165.52 9.37598 165.569 9.37891 165.64 9.38477C165.71 9.39062 165.83 9.40234 166 9.41992V11.0898C165.906 11.0723 165.818 11.0605 165.736 11.0547C165.66 11.0488 165.575 11.0459 165.481 11.0459C164.685 11.0459 164.072 11.3037 163.645 11.8193C163.217 12.3291 163.003 12.918 163.003 13.5859V19H161.421V9.58691ZM168.373 14.4033C168.373 15.4111 168.587 16.2549 169.015 16.9346C169.442 17.6143 170.128 17.9541 171.071 17.9541C171.804 17.9541 172.404 17.6406 172.873 17.0137C173.348 16.3809 173.585 15.4756 173.585 14.2979C173.585 13.1084 173.342 12.2295 172.855 11.6611C172.369 11.0869 171.769 10.7998 171.054 10.7998C170.257 10.7998 169.609 11.1045 169.111 11.7139C168.619 12.3232 168.373 13.2197 168.373 14.4033ZM170.755 9.41992C171.476 9.41992 172.079 9.57227 172.565 9.87695C172.847 10.0527 173.166 10.3604 173.523 10.7998V6.04492H175.044V19H173.62V17.6904C173.251 18.2705 172.814 18.6895 172.311 18.9473C171.807 19.2051 171.229 19.334 170.579 19.334C169.53 19.334 168.622 18.8945 167.854 18.0156C167.087 17.1309 166.703 15.9561 166.703 14.4912C166.703 13.1201 167.052 11.9336 167.749 10.9316C168.452 9.92383 169.454 9.41992 170.755 9.41992ZM182.778 6.08887H191.734V7.6709H184.527V11.5908H190.864V13.1289H184.527V19H182.778V6.08887ZM193.448 6.08887H195.03V19H193.448V6.08887ZM201.147 17.9805C202.196 17.9805 202.914 17.585 203.301 16.7939C203.693 15.9971 203.89 15.1123 203.89 14.1396C203.89 13.2607 203.749 12.5459 203.468 11.9951C203.022 11.1279 202.255 10.6943 201.165 10.6943C200.198 10.6943 199.495 11.0635 199.056 11.8018C198.616 12.54 198.396 13.4307 198.396 14.4736C198.396 15.4756 198.616 16.3105 199.056 16.9785C199.495 17.6465 200.192 17.9805 201.147 17.9805ZM201.209 9.31445C202.422 9.31445 203.447 9.71875 204.285 10.5273C205.123 11.3359 205.542 12.5254 205.542 14.0957C205.542 15.6133 205.173 16.8672 204.435 17.8574C203.696 18.8477 202.551 19.3428 200.998 19.3428C199.703 19.3428 198.675 18.9062 197.913 18.0332C197.151 17.1543 196.771 15.9766 196.771 14.5C196.771 12.918 197.172 11.6582 197.975 10.7207C198.777 9.7832 199.855 9.31445 201.209 9.31445ZM211.167 17.9805C212.216 17.9805 212.934 17.585 213.32 16.7939C213.713 15.9971 213.909 15.1123 213.909 14.1396C213.909 13.2607 213.769 12.5459 213.487 11.9951C213.042 11.1279 212.274 10.6943 211.185 10.6943C210.218 10.6943 209.515 11.0635 209.075 11.8018C208.636 12.54 208.416 13.4307 208.416 14.4736C208.416 15.4756 208.636 16.3105 209.075 16.9785C209.515 17.6465 210.212 17.9805 211.167 17.9805ZM211.229 9.31445C212.441 9.31445 213.467 9.71875 214.305 10.5273C215.143 11.3359 215.562 12.5254 215.562 14.0957C215.562 15.6133 215.192 16.8672 214.454 17.8574C213.716 18.8477 212.57 19.3428 211.018 19.3428C209.723 19.3428 208.694 18.9062 207.933 18.0332C207.171 17.1543 206.79 15.9766 206.79 14.5C206.79 12.918 207.191 11.6582 207.994 10.7207C208.797 9.7832 209.875 9.31445 211.229 9.31445ZM217.495 9.58691H218.998V11.2129C219.121 10.8965 219.423 10.5127 219.903 10.0615C220.384 9.60449 220.938 9.37598 221.564 9.37598C221.594 9.37598 221.644 9.37891 221.714 9.38477C221.784 9.39062 221.904 9.40234 222.074 9.41992V11.0898C221.98 11.0723 221.893 11.0605 221.811 11.0547C221.734 11.0488 221.649 11.0459 221.556 11.0459C220.759 11.0459 220.146 11.3037 219.719 11.8193C219.291 12.3291 219.077 12.918 219.077 13.5859V19H217.495V9.58691ZM222.795 20.8369C223.199 20.7666 223.483 20.4824 223.647 19.9844C223.735 19.7207 223.779 19.4658 223.779 19.2197C223.779 19.1787 223.776 19.1406 223.771 19.1055C223.771 19.0762 223.765 19.041 223.753 19H222.795V17.084H224.676V18.8594C224.676 19.5566 224.535 20.1689 224.254 20.6963C223.973 21.2236 223.486 21.5488 222.795 21.6719V20.8369ZM238.264 5.7373C240.543 5.7373 242.23 6.46973 243.326 7.93457C244.182 9.07715 244.609 10.5391 244.609 12.3203C244.609 14.248 244.12 15.8506 243.142 17.1279C241.993 18.6279 240.355 19.3779 238.229 19.3779C236.242 19.3779 234.681 18.7217 233.544 17.4092C232.53 16.1436 232.023 14.5439 232.023 12.6104C232.023 10.8643 232.457 9.37012 233.324 8.12793C234.438 6.53418 236.084 5.7373 238.264 5.7373ZM238.439 17.8135C239.98 17.8135 241.094 17.2627 241.779 16.1611C242.471 15.0537 242.816 13.7822 242.816 12.3467C242.816 10.8291 242.418 9.60742 241.621 8.68164C240.83 7.75586 239.746 7.29297 238.369 7.29297C237.033 7.29297 235.943 7.75293 235.1 8.67285C234.256 9.58691 233.834 10.9375 233.834 12.7246C233.834 14.1543 234.194 15.3613 234.915 16.3457C235.642 17.3242 236.816 17.8135 238.439 17.8135ZM246.886 8.1543C246.909 7.49805 247.023 7.01758 247.229 6.71289C247.598 6.17383 248.31 5.9043 249.364 5.9043C249.464 5.9043 249.566 5.90723 249.672 5.91309C249.777 5.91895 249.897 5.92773 250.032 5.93945V7.38086C249.868 7.36914 249.748 7.36328 249.672 7.36328C249.602 7.35742 249.534 7.35449 249.47 7.35449C248.989 7.35449 248.702 7.48047 248.608 7.73242C248.515 7.97852 248.468 8.61133 248.468 9.63086H250.032V10.8789H248.45V19H246.886V10.8789H245.576V9.63086H246.886V8.1543ZM251.896 8.1543C251.919 7.49805 252.033 7.01758 252.238 6.71289C252.607 6.17383 253.319 5.9043 254.374 5.9043C254.474 5.9043 254.576 5.90723 254.682 5.91309C254.787 5.91895 254.907 5.92773 255.042 5.93945V7.38086C254.878 7.36914 254.758 7.36328 254.682 7.36328C254.611 7.35742 254.544 7.35449 254.479 7.35449C253.999 7.35449 253.712 7.48047 253.618 7.73242C253.524 7.97852 253.478 8.61133 253.478 9.63086H255.042V10.8789H253.46V19H251.896V10.8789H250.586V9.63086H251.896V8.1543ZM256.562 7.88184V6.08887H258.145V7.88184H256.562ZM256.562 9.63086H258.145V19H256.562V9.63086ZM264.13 9.31445C265.19 9.31445 266.052 9.57227 266.714 10.0879C267.382 10.6035 267.783 11.4912 267.918 12.751H266.38C266.286 12.1709 266.072 11.6904 265.738 11.3096C265.404 10.9229 264.868 10.7295 264.13 10.7295C263.122 10.7295 262.401 11.2217 261.968 12.2061C261.687 12.8447 261.546 13.6328 261.546 14.5703C261.546 15.5137 261.745 16.3076 262.144 16.9521C262.542 17.5967 263.169 17.9189 264.024 17.9189C264.681 17.9189 265.199 17.7197 265.58 17.3213C265.967 16.917 266.233 16.3662 266.38 15.6689H267.918C267.742 16.917 267.303 17.8311 266.6 18.4111C265.896 18.9854 264.997 19.2725 263.901 19.2725C262.671 19.2725 261.689 18.8242 260.957 17.9277C260.225 17.0254 259.858 15.9004 259.858 14.5527C259.858 12.9004 260.26 11.6143 261.062 10.6943C261.865 9.77441 262.888 9.31445 264.13 9.31445ZM273.42 9.37598C274.088 9.37598 274.735 9.53418 275.362 9.85059C275.989 10.1611 276.467 10.5654 276.795 11.0635C277.111 11.5381 277.322 12.0918 277.428 12.7246C277.521 13.1582 277.568 13.8496 277.568 14.7988H270.669C270.698 15.7539 270.924 16.5215 271.346 17.1016C271.768 17.6758 272.421 17.9629 273.306 17.9629C274.132 17.9629 274.791 17.6904 275.283 17.1455C275.564 16.8291 275.764 16.4629 275.881 16.0469H277.437C277.396 16.3926 277.258 16.7793 277.023 17.207C276.795 17.6289 276.537 17.9746 276.25 18.2441C275.77 18.7129 275.175 19.0293 274.466 19.1934C274.085 19.2871 273.654 19.334 273.174 19.334C272.002 19.334 271.009 18.9092 270.194 18.0596C269.38 17.2041 268.973 16.0088 268.973 14.4736C268.973 12.9619 269.383 11.7344 270.203 10.791C271.023 9.84766 272.096 9.37598 273.42 9.37598ZM275.942 13.542C275.878 12.8564 275.729 12.3086 275.494 11.8984C275.061 11.1367 274.337 10.7559 273.323 10.7559C272.597 10.7559 271.987 11.0195 271.495 11.5469C271.003 12.0684 270.742 12.7334 270.713 13.542H275.942ZM289.319 14.5439V8.83984L285.285 14.5439H289.319ZM289.346 19V15.9238H283.826V14.377L289.592 6.37891H290.928V14.5439H292.782V15.9238H290.928V19H289.346ZM295.612 15.792C295.718 16.6943 296.137 17.3184 296.869 17.6641C297.244 17.8398 297.678 17.9277 298.17 17.9277C299.107 17.9277 299.802 17.6289 300.253 17.0312C300.704 16.4336 300.93 15.7715 300.93 15.0449C300.93 14.166 300.66 13.4863 300.121 13.0059C299.588 12.5254 298.946 12.2852 298.196 12.2852C297.651 12.2852 297.183 12.3906 296.79 12.6016C296.403 12.8125 296.072 13.1055 295.797 13.4805L294.426 13.4014L295.384 6.625H301.923V8.1543H296.57L296.034 11.6523C296.327 11.4297 296.605 11.2627 296.869 11.1514C297.338 10.958 297.88 10.8613 298.495 10.8613C299.649 10.8613 300.628 11.2334 301.431 11.9775C302.233 12.7217 302.635 13.665 302.635 14.8076C302.635 15.9971 302.266 17.0459 301.527 17.9541C300.795 18.8623 299.623 19.3164 298.012 19.3164C296.986 19.3164 296.078 19.0293 295.287 18.4551C294.502 17.875 294.062 16.9873 293.969 15.792H295.612Z" fill="white"/>
<path d="M11.5 14.2188C13.0878 14.2188 14.375 12.9316 14.375 11.3438C14.375 9.75593 13.0878 8.46875 11.5 8.46875C9.91218 8.46875 8.625 9.75593 8.625 11.3438C8.625 12.9316 9.91218 14.2188 11.5 14.2188Z" stroke="white" stroke-width="1.5" stroke-linecap="round" stroke-linejoin="round"/>
<path d="M18.6875 11.3438C18.6875 17.8125 11.5 22.8438 11.5 22.8438C11.5 22.8438 4.3125 17.8125 4.3125 11.3438C4.3125 9.43751 5.06975 7.60934 6.41767 6.26142C7.76559 4.9135 9.59376 4.15625 11.5 4.15625C13.4062 4.15625 15.2344 4.9135 16.5823 6.26142C17.9302 7.60934 18.6875 9.43751 18.6875 11.3438V11.3438Z" stroke="white" stroke-width="1.5" stroke-linecap="round" stroke-linejoin="round"/>
</svg>
