<svg width="30" height="32" viewBox="0 0 30 32" fill="none" xmlns="http://www.w3.org/2000/svg">
<rect width="30" height="32" rx="4" fill="#BC9A6C"/>
<path d="M23.1562 12.2878C23.5312 13.6003 23.5312 16.4128 23.5312 16.4128C23.5312 16.4128 23.5312 19.1941 23.1562 20.5378C22.9688 21.2878 22.375 21.8503 21.6562 22.0378C20.3125 22.3816 15 22.3816 15 22.3816C15 22.3816 9.65625 22.3816 8.3125 22.0378C7.59375 21.8503 7 21.2878 6.8125 20.5378C6.4375 19.1941 6.4375 16.4128 6.4375 16.4128C6.4375 16.4128 6.4375 13.6003 6.8125 12.2878C7 11.5378 7.59375 10.9441 8.3125 10.7566C9.65625 10.3816 15 10.3816 15 10.3816C15 10.3816 20.3125 10.3816 21.6562 10.7566C22.375 10.9441 22.9688 11.5378 23.1562 12.2878ZM13.25 18.9441L17.6875 16.4128L13.25 13.8816V18.9441Z" fill="#333333"/>
</svg>
